<?xml version="1.0" encoding="UTF-8"?>
<svg version="1.1" xmlns="http://www.w3.org/2000/svg" width="512" height="512">
    <path
        d="M0 0 C17.50531607 13.43987382 27.87220513 31.20175267 30.859375 53.1953125 C31.13133912 57.70097368 31.14327202 62.19336211 31.1340332 66.70629883 C31.13914413 68.01190262 31.14425507 69.31750641 31.14952087 70.66267395 C31.16279848 74.2124652 31.16350213 77.76214925 31.16095757 81.31196046 C31.15987999 84.29110987 31.16479129 87.27023829 31.169563 90.24938315 C31.18061973 97.28679583 31.18111754 104.32415512 31.17504883 111.36157227 C31.16901451 118.5853288 31.18131504 125.80889029 31.2026189 133.03261358 C31.22031997 139.26740998 31.22622287 145.50214479 31.22298115 151.73696536 C31.22118135 155.44625233 31.22367227 159.15540021 31.23769569 162.86466408 C31.25277922 167.008616 31.24323013 171.15217918 31.23168945 175.29614258 C31.23933319 176.50022766 31.24697693 177.70431274 31.25485229 178.94488525 C31.12619815 199.99512346 23.68375683 218.49121362 9.30078125 233.84765625 C-6.27591343 248.82620586 -25.0783138 254.87712438 -46.29370117 254.66357422 C-65.41037185 254.08716186 -82.38073306 246.49064217 -96.140625 233.1953125 C-99.05914483 230.01748168 -101.65549667 226.72047252 -104.140625 223.1953125 C-104.68460938 222.42703125 -105.22859375 221.65875 -105.7890625 220.8671875 C-118.66906175 201.12221404 -117.44588713 177.73683408 -117.40625 155.16796875 C-117.40669738 152.44762528 -117.40954113 149.72728499 -117.41204834 147.00694275 C-117.4156665 141.32597883 -117.41094638 135.64506726 -117.40136719 129.96411133 C-117.39049207 123.44016636 -117.39401009 116.91634655 -117.40502 110.39240462 C-117.41416101 104.74517897 -117.41534504 99.0979905 -117.41014266 93.45075983 C-117.40705936 90.09807587 -117.40732222 86.74549647 -117.41321564 83.39280891 C-117.45224095 54.9560865 -116.03138848 29.4376893 -95.02734375 7.953125 C-69.00141381 -16.91061863 -29.96767588 -20.00732118 0 0 Z "
        fill="#ffffff" transform="translate(301.140625,72.8046875)" />
    <path
        d="M0 0 C3.4126928 2.63859419 5.02158037 4.92213011 6.2265625 8.98828125 C6.63712661 12.52097095 6.82281953 16.06421535 7.0390625 19.61328125 C9.38499064 50.39205278 22.15784792 75.42092758 45.515625 95.83203125 C67.49699309 113.31577071 96.13181198 120.79484091 123.91162109 117.68798828 C151.10954745 113.69053983 176.49543895 100.14326614 193.2265625 77.98828125 C207.12781313 58.56186005 213.49369036 37.88204242 214.6640625 14.17578125 C215.05120369 7.53243846 216.40245499 4.91324974 220.9765625 0.17578125 C224.29645107 -1.57638216 227.51783308 -2.12956623 231.2265625 -2.01171875 C235.88226307 -0.53741357 239.13271998 1.18047507 242.2265625 4.98828125 C249.42972612 26.59777211 238.7522769 56.45743188 229.26708984 75.96191406 C223.88606045 86.44115947 217.38455619 95.49229159 209.2265625 103.98828125 C208.09625275 105.33801908 206.9710105 106.69202132 205.8515625 108.05078125 C191.24702593 124.68928296 169.93254791 135.9357449 149.0390625 142.36328125 C148.26860596 142.60208008 147.49814941 142.84087891 146.7043457 143.08691406 C139.50040135 145.17038191 132.85292744 145.89880054 125.2265625 146.98828125 C125.2265625 161.50828125 125.2265625 176.02828125 125.2265625 190.98828125 C129.57199219 190.95347656 133.91742188 190.91867187 138.39453125 190.8828125 C141.86507661 190.86351195 145.33560675 190.84724628 148.80617523 190.8330307 C152.46667801 190.81720583 156.12697152 190.79606774 159.78735352 190.76196289 C163.31461466 190.729305 166.84167318 190.71141481 170.36907387 190.70364952 C172.36600558 190.69542992 174.36285608 190.67202064 176.35966492 190.64839172 C177.58055313 190.64816513 178.80144135 190.64793854 180.05932617 190.64770508 C181.13188156 190.64104324 182.20443695 190.63438141 183.30949402 190.6275177 C187.7164863 191.17254508 190.30280792 193.11584637 193.4765625 196.11328125 C195.8509474 200.01405644 196.43531579 203.44388266 196.2265625 207.98828125 C194.70825575 212.22355797 192.66095344 215.09051389 189.2265625 217.98828125 C185.98292078 219.06949516 183.62459058 219.11945646 180.21159363 219.12872314 C178.32522942 219.13728836 178.32522942 219.13728836 176.40075684 219.14602661 C175.00439463 219.14727196 173.60803231 219.14839706 172.21166992 219.14941406 C170.74314753 219.15404269 169.27462635 219.15906741 167.80610657 219.16445923 C163.81427358 219.17758115 159.82245741 219.1840278 155.83060622 219.18846989 C153.33648881 219.19140101 150.84237598 219.1955059 148.34826088 219.19997406 C140.54425076 219.21364858 132.74025115 219.2233154 124.93622988 219.22717595 C115.92858316 219.23165643 106.92108819 219.24920397 97.91348761 219.27817655 C90.95033049 219.29979555 83.98721606 219.30988035 77.02402574 219.31121707 C72.86550298 219.31226496 68.7071229 219.31816937 64.54863548 219.33603668 C60.63586281 219.35252115 56.72334 219.35467114 52.81054497 219.34589767 C51.3762673 219.34512749 49.94197618 219.34946761 48.50773239 219.35935593 C46.5460233 219.37208517 44.58421371 219.36440337 42.6224823 219.35577393 C41.52575793 219.35724049 40.42903357 219.35870705 39.29907513 219.36021805 C34.41758042 218.76929859 31.19233144 217.05845765 27.9140625 213.42578125 C25.04778116 209.2855971 24.72646352 205.95222667 25.2265625 200.98828125 C26.63389679 196.92264886 28.3925668 194.14486488 32.07086182 191.80871582 C37.25506542 189.83566831 43.12319046 190.51211956 48.59375 190.59765625 C49.99764192 190.60512473 51.40154433 190.61081479 52.80545044 190.61480713 C56.48491642 190.63001609 60.16374205 190.66925543 63.84295654 190.71362305 C67.60354801 190.75467909 71.36424691 190.77305986 75.125 190.79296875 C82.49275142 190.83362963 89.85874877 190.91193085 97.2265625 190.98828125 C97.2265625 176.46828125 97.2265625 161.94828125 97.2265625 146.98828125 C92.2765625 146.32828125 87.3265625 145.66828125 82.2265625 144.98828125 C79.24480954 144.29115279 76.4359089 143.59497992 73.5390625 142.67578125 C72.82830566 142.45704346 72.11754883 142.23830566 71.38525391 142.01293945 C54.29483677 136.63190836 38.88613436 128.56382695 25.2265625 116.98828125 C24.70964844 116.55112793 24.19273437 116.11397461 23.66015625 115.66357422 C-2.85238757 92.94684259 -19.21163971 60.76341054 -22.24609375 26.00390625 C-22.3668378 24.31171388 -22.4802459 22.61898042 -22.5859375 20.92578125 C-22.63911133 20.14033936 -22.69228516 19.35489746 -22.74707031 18.5456543 C-23.04068966 12.36972836 -22.51373787 7.16365671 -18.5234375 2.17578125 C-13.0000089 -2.21785514 -6.34289183 -3.61852199 0 0 Z "
        fill="#ffffff" transform="translate(146.7734375,238.01171875)" />
</svg>