<?xml version="1.0" encoding="UTF-8"?>
<svg version="1.1" xmlns="http://www.w3.org/2000/svg" width="512" height="512">
    <path
        d="M0 0 C0.72703125 -0.03738281 1.4540625 -0.07476563 2.203125 -0.11328125 C10.83097418 1.32910458 16.70984786 8.86681398 22.55053711 14.77246094 C23.62480267 15.84757371 24.69973123 16.92202436 25.77526855 17.99586487 C28.6802762 20.90001481 31.57596657 23.81329469 34.47002864 26.72834682 C37.50087503 29.77799739 40.54026785 32.81910623 43.57875061 35.86114502 C49.32548641 41.6171903 55.06453451 47.38083735 60.80083615 53.14727902 C67.33422531 59.71424636 73.87617543 66.27265692 80.41884601 72.83037519 C93.87208805 86.3149414 107.31458265 99.81017515 120.75 113.3125 C120.76401855 111.80236328 120.76401855 111.80236328 120.77832031 110.26171875 C120.81888525 106.44424823 120.88480797 102.6275289 120.95751953 98.81054688 C120.98535101 97.17392799 121.0067487 95.53718413 121.02099609 93.90039062 C121.2700485 66.86990229 130.17863841 44.0430523 149.51660156 24.94091797 C168.34817465 7.27883888 191.09826182 1.61226356 216.3046875 2 C224.28939609 2.27861734 231.21276944 3.63853794 238.75 6.3125 C239.93335938 6.725 241.11671875 7.1375 242.3359375 7.5625 C263.34719544 15.72581434 281.1440941 32.6021541 290.52734375 53.07421875 C296.38662919 66.71761249 298.19924464 79.86620967 298.15405273 94.59887695 C298.15976833 96.29895472 298.16673714 97.99902866 298.17485046 99.69909668 C298.19266764 104.27988977 298.19163498 108.86049009 298.18590808 113.44130731 C298.18279896 117.2827827 298.18892784 121.12422199 298.19494683 124.96569222 C298.20895347 134.03795023 298.20746358 143.11011401 298.19604492 152.18237305 C298.18457292 161.50222148 298.19863281 170.82178184 298.2254414 180.14159232 C298.24768586 188.17942574 298.25421601 196.21716931 298.24836498 204.25503129 C298.24501439 209.0397181 298.24728268 213.82422044 298.26461601 218.608881 C298.28022289 223.11284626 298.27597941 227.61638903 298.25731087 232.12033844 C298.25366237 233.76004907 298.25662223 235.39979199 298.26719666 237.03947258 C298.35214274 251.316809 296.44362118 264.31623703 289.5078125 277.078125 C288.50391186 279.26192332 288.50391186 279.26192332 289.45800781 281.1953125 C290.94602272 283.63372242 292.62890908 285.417097 294.6640625 287.421875 C295.80488281 288.55302734 295.80488281 288.55302734 296.96875 289.70703125 C297.7628125 290.48433594 298.556875 291.26164062 299.375 292.0625 C300.17679687 292.85527344 300.97859375 293.64804687 301.8046875 294.46484375 C303.78202846 296.41864493 305.76388909 298.36762103 307.75 300.3125 C310.97663674 298.95285613 312.49732774 297.67366091 314.3359375 294.70703125 C314.7889624 293.97846924 315.2419873 293.24990723 315.70874023 292.49926758 C316.17610596 291.71575928 316.64347168 290.93225098 317.125 290.125 C317.61105713 289.31635498 318.09711426 288.50770996 318.59790039 287.67456055 C330.26178702 267.81495615 335.04361184 245.82124539 335.0234375 222.94140625 C335.04369981 220.46679213 335.06455001 217.99218277 335.0859375 215.51757812 C335.10862077 211.67744858 335.12505665 207.83750823 335.13085938 203.99731445 C335.14037422 200.24917909 335.17410081 196.50185872 335.2109375 192.75390625 C335.20589203 191.60902237 335.20084656 190.46413849 335.19564819 189.28456116 C335.27640504 182.73641983 335.83059388 178.63169401 339.75 173.3125 C343.64860362 169.65017539 348.04442384 169.80681687 353.15625 169.96484375 C356.77796604 170.45028461 358.40550261 171.52840935 360.75 174.3125 C364.75866865 180.18666138 364.18295859 186.33257787 364.1484375 193.171875 C364.15130768 194.43026184 364.15417786 195.68864868 364.15713501 196.98516846 C364.15917539 199.65172262 364.15516801 202.31745083 364.14111328 204.98388672 C364.12756342 207.68168017 364.12728563 210.37886828 364.14111328 213.07666016 C364.21305248 228.08981844 364.11405082 242.63227343 360.75 257.3125 C360.53102051 258.27607422 360.31204102 259.23964844 360.08642578 260.23242188 C359.5014968 262.5794437 358.8460381 264.87905027 358.125 267.1875 C357.87194092 268.00718262 357.61888184 268.82686523 357.3581543 269.67138672 C351.94888118 286.51699608 344.04930749 304.58252982 332.36328125 318.06640625 C330.5273111 320.10877527 330.5273111 320.10877527 330.91038704 322.19323254 C331.99396973 324.92830412 333.47801609 326.39756762 335.57052612 328.46687317 C336.3921524 329.2868428 337.21377869 330.10681244 338.06030273 330.95162964 C338.9683667 331.8426236 339.87643066 332.73361755 340.81201172 333.65161133 C341.77346827 334.6056723 342.73423651 335.56042735 343.69436646 336.51582336 C345.76313248 338.57171711 347.83641672 340.62290468 349.91323471 342.67066383 C353.19925122 345.91133041 356.47325364 349.16395385 359.74539185 352.41862488 C367.87650282 360.50266393 376.02260424 368.57155329 384.17321777 376.63592529 C390.50414332 382.90010608 396.83053026 389.16872299 403.14317524 395.45133227 C406.39283844 398.68452234 409.6516448 401.90810985 412.91772819 405.12470782 C414.95205762 407.13230366 416.97794114 409.14826128 419.00162888 411.16657829 C420.38386644 412.5401563 421.77609768 413.90365491 423.16864014 415.26678467 C432.28186463 424.39282281 432.28186463 424.39282281 432.96484375 431.5703125 C432.27703993 436.20087907 431.11815052 439.04641465 427.75 442.3125 C427.09 442.3125 426.43 442.3125 425.75 442.3125 C425.42 443.3025 425.09 444.2925 424.75 445.3125 C421.57019134 447.49587092 418.66816153 447.63924095 414.875 447.6875 C413.86695313 447.71585937 412.85890625 447.74421875 411.8203125 447.7734375 C404.95293015 446.74245643 400.21836339 441.06705733 395.52326679 436.34024239 C394.81487906 435.63506113 394.10649133 434.92987988 393.37663731 434.2033295 C390.9982266 431.83323662 388.62701183 429.45607334 386.25569153 427.07888794 C384.53715607 425.36337233 382.81818655 423.64829145 381.09881991 421.93360889 C377.3585357 418.20148039 373.62138832 414.46625194 369.88697052 410.72825623 C364.33379291 405.16977219 358.77492832 399.61700166 353.21495129 394.06531993 C342.70808502 383.57369879 332.20799761 373.07531085 321.70998553 362.57483114 C313.60488879 354.46790237 305.49799946 346.36277014 297.38983727 338.25890732 C296.22532034 337.09499279 295.06080401 335.93107765 293.89628827 334.76716193 C292.14152857 333.01330947 290.38676815 331.25945772 288.63200385 329.50560986 C272.31643764 313.19847378 256.00291994 296.88929069 239.69365406 280.57585335 C238.77130688 279.65327161 238.77130688 279.65327161 237.83032643 278.71205185 C234.71371479 275.59463442 231.59712314 272.477197 228.48053948 269.3597516 C227.86156421 268.74060524 227.24258894 268.12145888 226.60485684 267.48355051 C225.35313947 266.23148649 224.10142304 264.97942153 222.84970755 263.72735563 C203.3663535 244.23864257 183.87636269 224.75658888 164.38110352 205.27978516 C142.48360328 183.40299016 120.59109245 161.52121976 98.70595282 139.63205898 C96.37355514 137.29926594 94.04114056 134.96648981 91.70871544 132.63372421 C91.13440611 132.05932415 90.56009678 131.48492409 89.96838414 130.89311797 C81.29061863 122.21418546 72.60894819 113.539172 63.92530251 104.8661232 C54.05331144 95.00616683 44.18655524 85.14100677 34.3267918 75.26882233 C28.80655188 69.74194002 23.2821897 64.21925446 17.7518544 58.70247344 C13.62771825 54.58752131 9.51141615 50.4647962 5.39817782 46.33894907 C3.72933558 44.66744081 2.05793366 42.99848361 0.38378403 41.33229114 C-1.88470832 39.07383759 -4.14383428 36.80641362 -6.40079021 34.5364399 C-7.05860179 33.88593766 -7.71641337 33.23543543 -8.39415863 32.56522101 C-12.35908264 28.55247892 -15.67026032 24.7227334 -16.6484375 18.96875 C-16.58751486 13.36386727 -15.9618461 9.04657435 -11.8203125 4.87109375 C-8.02252494 1.55511506 -4.98250595 0.16550282 0 0 Z "
        fill="#ffffff" transform="translate(46.25,29.6875)" />
    <path
        d="M0 0 C5.083269 2.36008918 7.02997917 4.82553374 9 10 C9.43511266 13.97141108 9.4171221 17.92200943 9.40625 21.9140625 C9.41708618 23.07892181 9.42792236 24.24378113 9.43908691 25.44393921 C9.47329368 29.17101506 9.48890424 32.89778815 9.5 36.625 C9.44824005 66.61070908 9.44824005 66.61070908 16.125 95.6875 C16.4235791 96.54851318 16.7221582 97.40952637 17.02978516 98.29663086 C28.18238957 129.24154269 51.56765274 154.88762704 81.125 169.25 C114.96786252 184.95045842 150.31164696 183.56278435 185 172 C191.93 178.93 198.86 185.86 206 193 C202.62461596 196.37538404 199.36083467 197.71551411 195 199.375 C194.20835449 199.67881592 193.41670898 199.98263184 192.60107422 200.2956543 C178.47912506 205.56605345 163.13983879 210 148 210 C148 223.86 148 237.72 148 252 C154.19910156 251.96519531 160.39820313 251.93039062 166.78515625 251.89453125 C170.71810841 251.87919825 174.65102359 251.86475606 178.58398438 251.85351562 C184.8232389 251.83559914 191.06236104 251.81442922 197.30151367 251.77368164 C202.33303209 251.7410276 207.36440848 251.72313417 212.3960247 251.71536827 C214.31332064 251.70983563 216.23060902 251.6990317 218.14784431 251.68280983 C220.83839697 251.66095524 223.52836665 251.65803643 226.21899414 251.65942383 C227.40151512 251.64324509 227.40151512 251.64324509 228.60792542 251.6267395 C233.79977213 251.65560894 237.39041992 252.56276824 242 255 C246.72239255 260.09521301 247.3573685 263.44116253 247.27734375 270.234375 C246.88598046 274.13698363 245.68620197 276.17241898 243 279 C238.34912419 281.86093405 234.42076523 282.43225013 229.07447815 282.38768005 C228.29433206 282.39306559 227.51418597 282.39845113 226.71039909 282.40399987 C224.10568009 282.41826617 221.50147023 282.41117912 218.89672852 282.40405273 C217.02544751 282.409757 215.15416999 282.41672147 213.28289795 282.42485046 C208.20644866 282.44279064 203.13017215 282.44161187 198.05370069 282.43590808 C193.81407678 282.43281752 189.57448612 282.4389072 185.33486694 282.44494683 C175.33251011 282.45899323 165.33023869 282.45742975 155.32788086 282.44604492 C145.01224075 282.43456291 134.69686059 282.44864057 124.38125473 282.4754414 C115.52078183 282.49759895 106.66039053 282.50423566 97.79989189 282.49836498 C92.50957797 282.49499443 87.21943069 282.49741714 81.92914009 282.51461601 C76.95418302 282.53008391 71.97961104 282.52613121 67.00466919 282.50731087 C65.18057771 282.5036246 63.3564577 282.50673456 61.5323925 282.51719666 C59.03865368 282.53040596 56.54618989 282.51886047 54.05250549 282.50120544 C53.33381698 282.51081045 52.61512846 282.52041546 51.87466151 282.53031152 C46.4338485 282.45127004 43.40310897 280.96167083 39 278 C35.8181341 274.35801134 34.66233046 270.23074414 34.875 265.4375 C35.70943822 260.5657294 38.06525957 256.97786435 42 254 C46.56044834 252.15932356 50.39101411 251.75575794 55.29052734 251.77294922 C56.3452272 251.77251114 56.3452272 251.77251114 57.42123413 251.77206421 C59.72626442 251.77344838 62.03096426 251.78896603 64.3359375 251.8046875 C65.94161808 251.80842088 67.54730094 251.81126632 69.15298462 251.81326294 C73.36487189 251.82087379 77.57661971 251.84050021 81.78845215 251.8626709 C86.84959532 251.88679547 91.9107853 251.89592245 96.9719696 251.90757751 C104.64807652 251.92692624 112.32387786 251.96526642 120 252 C120 238.14 120 224.28 120 210 C114.72 209.34 109.44 208.68 104 208 C98.90573919 206.82440135 93.96775178 205.57771008 89 204 C88.27973633 203.7721582 87.55947266 203.54431641 86.81738281 203.30957031 C65.33956366 196.34055656 46.7496884 185.29337254 30.17578125 169.98828125 C28.42998626 168.39293179 26.66711898 166.90064268 24.8125 165.4375 C21.13404357 162.24950442 18.08592744 158.75678124 15 155 C14.22398437 154.0615625 13.44796875 153.123125 12.6484375 152.15625 C6.04695792 143.98544981 0.81703654 135.32041623 -4 126 C-4.32097656 125.38398926 -4.64195313 124.76797852 -4.97265625 124.13330078 C-16.61239282 101.48086366 -21.10149554 77.11416919 -21.203125 51.796875 C-21.20882507 50.6748468 -21.21452515 49.5528186 -21.22039795 48.39678955 C-21.22977783 46.04383265 -21.23635372 43.69086302 -21.24023438 41.33789062 C-21.25001126 37.74586439 -21.28112975 34.15439419 -21.3125 30.5625 C-21.31902486 28.26562836 -21.32427736 25.96875268 -21.328125 23.671875 C-21.3404718 22.60507507 -21.3528186 21.53827515 -21.36553955 20.43914795 C-21.34782881 14.50795164 -20.92564564 10.20831138 -18 5 C-12.26152601 -0.31858565 -7.64696318 -0.76685648 0 0 Z "
        fill="#ffffff" transform="translate(121,200)" />
    <path
        d="M0 0 C6.30120599 5.20176148 12.03749296 10.90260285 17.80053711 16.68701172 C18.87523258 17.7619897 19.95014917 18.83674666 21.02526855 19.91130066 C23.9257646 22.81151124 26.82317946 25.71478209 29.72002864 28.6186347 C32.75446857 31.65935012 35.79176394 34.69721065 38.82875061 37.73538208 C44.57145584 43.4811883 50.31160843 49.22953758 56.05083615 54.97881711 C62.58818824 61.52736871 69.12839946 68.07306166 75.66884601 74.61852241 C89.11573576 88.07584861 102.55905155 101.53673986 116 115 C110.83626228 120.16373772 100.11421676 120.59099451 93 121 C92.21882813 121.05285156 91.43765625 121.10570312 90.6328125 121.16015625 C66.39971787 122.00720971 43.72593473 112.23322444 26 96 C10.54613609 80.74394555 0.04400702 60.25717434 -0.37724304 38.35946655 C-0.3999394 33.09230697 -0.33451068 27.82887081 -0.25 22.5625 C-0.22989089 20.36655287 -0.21164798 18.17058782 -0.1953125 15.97460938 C-0.15169819 10.64932809 -0.08344879 5.3247883 0 0 Z "
        fill="#ffffff" transform="translate(168,235)" />
</svg>